<?xml version="1.0" encoding="UTF-8"?>
<svg xmlns="http://www.w3.org/2000/svg" width="960" height="600" viewBox="0 0 960 600" role="img" aria-label="PLACEHOLDER · GenAI SEO Writer gallery 2 · 16:10 (placeholder image)">
  <title>PLACEHOLDER · GenAI SEO Writer gallery 2 · 16:10 — placeholder image</title>
  <defs>
    <linearGradient id="g37" x1="0" y1="0" x2="1" y2="1">
      <stop offset="0" stop-color="hsl(160 55% 26%)"/>
      <stop offset="1" stop-color="hsl(140 60% 15%)"/>
    </linearGradient>
  </defs>
  <rect width="960" height="600" fill="url(#g37)"/>
  <circle cx="660.1" cy="90.7" r="92" fill="none" stroke="#ffffff" stroke-opacity="0.09" stroke-width="1.2"/>
  <circle cx="214.1" cy="464.8" r="70" fill="none" stroke="#ffffff" stroke-opacity="0.09" stroke-width="1.2"/>
  <circle cx="334.4" cy="412.1" r="77" fill="none" stroke="#ffffff" stroke-opacity="0.09" stroke-width="1.2"/>
  <circle cx="0.3" cy="520.1" r="3.1" fill="#0a0a0f" opacity="0.15"/>
  <circle cx="683.9" cy="60.9" r="2.6" fill="#ffffff" opacity="0.06"/>
  <circle cx="128.6" cy="350.2" r="1.4" fill="#ffffff" opacity="0.07"/>
  <circle cx="715.9" cy="167.5" r="3.2" fill="#0a0a0f" opacity="0.11"/>
  <circle cx="799.2" cy="170.9" r="1.4" fill="#ffffff" opacity="0.10"/>
  <circle cx="429.1" cy="246.4" r="2.7" fill="#ffffff" opacity="0.09"/>
  <circle cx="295.8" cy="297.8" r="1.9" fill="#0a0a0f" opacity="0.07"/>
  <circle cx="376.3" cy="566.4" r="2.5" fill="#ffffff" opacity="0.07"/>
  <circle cx="682.3" cy="453.7" r="1.5" fill="#ffffff" opacity="0.06"/>
  <circle cx="391.3" cy="592.3" r="2.5" fill="#0a0a0f" opacity="0.10"/>
  <circle cx="134.8" cy="212.6" r="2.6" fill="#ffffff" opacity="0.14"/>
  <circle cx="101.9" cy="413.6" r="1.8" fill="#ffffff" opacity="0.12"/>
  <circle cx="86.7" cy="88.3" r="1.8" fill="#0a0a0f" opacity="0.12"/>
  <circle cx="765.7" cy="102.9" r="1.6" fill="#ffffff" opacity="0.07"/>
  <circle cx="1.1" cy="128.0" r="2.4" fill="#ffffff" opacity="0.07"/>
  <circle cx="453.3" cy="400.4" r="1.2" fill="#0a0a0f" opacity="0.13"/>
  <circle cx="485.5" cy="166.3" r="2.9" fill="#ffffff" opacity="0.09"/>
  <circle cx="64.6" cy="437.2" r="2.2" fill="#ffffff" opacity="0.07"/>
  <circle cx="241.9" cy="486.7" r="2.3" fill="#0a0a0f" opacity="0.07"/>
  <circle cx="783.6" cy="511.9" r="1.4" fill="#ffffff" opacity="0.10"/>
  <circle cx="604.1" cy="383.1" r="2.3" fill="#ffffff" opacity="0.10"/>
  <circle cx="120.1" cy="175.9" r="1.5" fill="#0a0a0f" opacity="0.13"/>
  <circle cx="940.7" cy="526.3" r="2.4" fill="#ffffff" opacity="0.08"/>
  <circle cx="948.1" cy="594.7" r="2.9" fill="#ffffff" opacity="0.08"/>
  <circle cx="237.1" cy="81.5" r="3.1" fill="#0a0a0f" opacity="0.09"/>
  <circle cx="845.0" cy="187.8" r="2.4" fill="#ffffff" opacity="0.11"/>
  <g opacity="0.92">
    <rect x="14" y="562" width="358.79999999999995" height="26" rx="13" fill="#0a0a0f" fill-opacity="0.55"/>
    <text x="23" y="579" font-family="ui-monospace, SFMono-Regular, Menlo, monospace" font-size="11" letter-spacing="1.5" fill="#f3efe8" fill-opacity="0.85">PLACEHOLDER · GenAI SEO Writer gallery 2 · 16:10</text>
  </g>
</svg>
