<?xml version="1.0" encoding="UTF-8"?>
<svg xmlns="http://www.w3.org/2000/svg" width="960" height="600" viewBox="0 0 960 600" role="img" aria-label="PLACEHOLDER · DozeBuster gallery 2 · 16:10 (placeholder image)">
  <title>PLACEHOLDER · DozeBuster gallery 2 · 16:10 — placeholder image</title>
  <defs>
    <linearGradient id="g51" x1="0" y1="0" x2="1" y2="1">
      <stop offset="0" stop-color="hsl(230 55% 26%)"/>
      <stop offset="1" stop-color="hsl(210 60% 15%)"/>
    </linearGradient>
  </defs>
  <rect width="960" height="600" fill="url(#g51)"/>
  <circle cx="806.1" cy="92.6" r="113" fill="none" stroke="#ffffff" stroke-opacity="0.09" stroke-width="1.2"/>
  <circle cx="658.3" cy="154.2" r="68" fill="none" stroke="#ffffff" stroke-opacity="0.09" stroke-width="1.2"/>
  <circle cx="694.5" cy="97.8" r="56" fill="none" stroke="#ffffff" stroke-opacity="0.09" stroke-width="1.2"/>
  <circle cx="0.4" cy="425.1" r="2.2" fill="#0a0a0f" opacity="0.09"/>
  <circle cx="164.3" cy="100.2" r="1.9" fill="#ffffff" opacity="0.11"/>
  <circle cx="618.4" cy="401.6" r="2.2" fill="#ffffff" opacity="0.10"/>
  <circle cx="364.1" cy="457.9" r="2.6" fill="#0a0a0f" opacity="0.05"/>
  <circle cx="219.5" cy="235.6" r="2.2" fill="#ffffff" opacity="0.09"/>
  <circle cx="280.1" cy="15.2" r="1.1" fill="#ffffff" opacity="0.10"/>
  <circle cx="148.3" cy="524.0" r="2.5" fill="#0a0a0f" opacity="0.08"/>
  <circle cx="207.3" cy="456.4" r="1.9" fill="#ffffff" opacity="0.14"/>
  <circle cx="369.7" cy="252.4" r="2.2" fill="#ffffff" opacity="0.12"/>
  <circle cx="254.0" cy="346.2" r="2.2" fill="#0a0a0f" opacity="0.11"/>
  <circle cx="575.0" cy="66.0" r="2.9" fill="#ffffff" opacity="0.09"/>
  <circle cx="218.3" cy="424.2" r="1.5" fill="#ffffff" opacity="0.06"/>
  <circle cx="871.9" cy="154.2" r="1.2" fill="#0a0a0f" opacity="0.09"/>
  <circle cx="121.4" cy="12.1" r="1.7" fill="#ffffff" opacity="0.10"/>
  <circle cx="779.9" cy="468.3" r="1.8" fill="#ffffff" opacity="0.06"/>
  <circle cx="131.8" cy="438.4" r="1.7" fill="#0a0a0f" opacity="0.08"/>
  <circle cx="306.0" cy="115.7" r="2.3" fill="#ffffff" opacity="0.11"/>
  <circle cx="322.5" cy="456.7" r="2.2" fill="#ffffff" opacity="0.11"/>
  <circle cx="125.9" cy="362.8" r="1.0" fill="#0a0a0f" opacity="0.12"/>
  <circle cx="950.4" cy="332.6" r="2.8" fill="#ffffff" opacity="0.08"/>
  <circle cx="209.9" cy="236.2" r="2.8" fill="#ffffff" opacity="0.06"/>
  <circle cx="269.4" cy="64.0" r="2.2" fill="#0a0a0f" opacity="0.15"/>
  <circle cx="933.5" cy="190.3" r="3.0" fill="#ffffff" opacity="0.11"/>
  <circle cx="865.7" cy="106.2" r="1.3" fill="#ffffff" opacity="0.06"/>
  <circle cx="15.5" cy="550.2" r="2.6" fill="#0a0a0f" opacity="0.07"/>
  <circle cx="386.4" cy="518.3" r="2.4" fill="#ffffff" opacity="0.06"/>
  <g opacity="0.92">
    <rect x="14" y="562" width="316.2" height="26" rx="13" fill="#0a0a0f" fill-opacity="0.55"/>
    <text x="23" y="579" font-family="ui-monospace, SFMono-Regular, Menlo, monospace" font-size="11" letter-spacing="1.5" fill="#f3efe8" fill-opacity="0.85">PLACEHOLDER · DozeBuster gallery 2 · 16:10</text>
  </g>
</svg>
