<?xml version="1.0" encoding="UTF-8"?>
<svg xmlns="http://www.w3.org/2000/svg" width="960" height="600" viewBox="0 0 960 600" role="img" aria-label="PLACEHOLDER · UEN Search gallery 1 · 16:10 (placeholder image)">
  <title>PLACEHOLDER · UEN Search gallery 1 · 16:10 — placeholder image</title>
  <defs>
    <linearGradient id="g41" x1="0" y1="0" x2="1" y2="1">
      <stop offset="0" stop-color="hsl(185 55% 26%)"/>
      <stop offset="1" stop-color="hsl(165 60% 15%)"/>
    </linearGradient>
  </defs>
  <rect width="960" height="600" fill="url(#g41)"/>
  <circle cx="290.4" cy="262.7" r="111" fill="none" stroke="#ffffff" stroke-opacity="0.09" stroke-width="1.2"/>
  <circle cx="341.0" cy="547.5" r="69" fill="none" stroke="#ffffff" stroke-opacity="0.09" stroke-width="1.2"/>
  <circle cx="163.0" cy="408.0" r="96" fill="none" stroke="#ffffff" stroke-opacity="0.09" stroke-width="1.2"/>
  <circle cx="0.3" cy="235.8" r="3.2" fill="#0a0a0f" opacity="0.13"/>
  <circle cx="809.7" cy="586.4" r="3.0" fill="#ffffff" opacity="0.13"/>
  <circle cx="817.1" cy="193.4" r="2.6" fill="#ffffff" opacity="0.08"/>
  <circle cx="66.8" cy="250.5" r="1.4" fill="#0a0a0f" opacity="0.12"/>
  <circle cx="496.4" cy="189.4" r="2.6" fill="#ffffff" opacity="0.12"/>
  <circle cx="112.2" cy="94.6" r="1.3" fill="#ffffff" opacity="0.06"/>
  <circle cx="665.1" cy="362.4" r="2.7" fill="#0a0a0f" opacity="0.13"/>
  <circle cx="53.7" cy="449.3" r="1.7" fill="#ffffff" opacity="0.08"/>
  <circle cx="730.1" cy="567.6" r="1.4" fill="#ffffff" opacity="0.10"/>
  <circle cx="900.7" cy="7.7" r="2.4" fill="#0a0a0f" opacity="0.15"/>
  <circle cx="123.5" cy="170.7" r="2.4" fill="#ffffff" opacity="0.14"/>
  <circle cx="683.8" cy="588.1" r="3.0" fill="#ffffff" opacity="0.08"/>
  <circle cx="173.9" cy="535.7" r="1.9" fill="#0a0a0f" opacity="0.11"/>
  <circle cx="718.8" cy="162.7" r="2.6" fill="#ffffff" opacity="0.13"/>
  <circle cx="909.3" cy="482.3" r="1.6" fill="#ffffff" opacity="0.10"/>
  <circle cx="87.1" cy="411.3" r="1.4" fill="#0a0a0f" opacity="0.06"/>
  <circle cx="434.2" cy="151.8" r="3.0" fill="#ffffff" opacity="0.12"/>
  <circle cx="824.0" cy="14.2" r="2.2" fill="#ffffff" opacity="0.12"/>
  <circle cx="345.9" cy="279.9" r="2.6" fill="#0a0a0f" opacity="0.05"/>
  <circle cx="557.0" cy="32.1" r="1.5" fill="#ffffff" opacity="0.11"/>
  <circle cx="902.9" cy="84.0" r="2.4" fill="#ffffff" opacity="0.07"/>
  <circle cx="574.2" cy="486.8" r="1.4" fill="#0a0a0f" opacity="0.12"/>
  <circle cx="938.7" cy="258.9" r="2.2" fill="#ffffff" opacity="0.11"/>
  <circle cx="376.0" cy="26.5" r="1.5" fill="#ffffff" opacity="0.12"/>
  <circle cx="859.5" cy="301.2" r="1.1" fill="#0a0a0f" opacity="0.05"/>
  <circle cx="28.3" cy="110.8" r="2.7" fill="#ffffff" opacity="0.08"/>
  <g opacity="0.92">
    <rect x="14" y="562" width="316.2" height="26" rx="13" fill="#0a0a0f" fill-opacity="0.55"/>
    <text x="23" y="579" font-family="ui-monospace, SFMono-Regular, Menlo, monospace" font-size="11" letter-spacing="1.5" fill="#f3efe8" fill-opacity="0.85">PLACEHOLDER · UEN Search gallery 1 · 16:10</text>
  </g>
</svg>
