<?xml version="1.0" encoding="UTF-8"?>
<svg xmlns="http://www.w3.org/2000/svg" width="448" height="560" viewBox="0 0 448 560" role="img" aria-label="PLACEHOLDER · Hack&amp;Roll 2025 photo · 4:5 (placeholder image)">
  <title>PLACEHOLDER · Hack&amp;Roll 2025 photo · 4:5 — placeholder image</title>
  <defs>
    <linearGradient id="g17" x1="0" y1="0" x2="1" y2="1">
      <stop offset="0" stop-color="hsl(280 55% 26%)"/>
      <stop offset="1" stop-color="hsl(300 60% 15%)"/>
    </linearGradient>
  </defs>
  <rect width="448" height="560" fill="url(#g17)"/>
  <circle cx="274.7" cy="402.2" r="88" fill="none" stroke="#ffffff" stroke-opacity="0.09" stroke-width="1.2"/>
  <circle cx="251.7" cy="48.0" r="73" fill="none" stroke="#ffffff" stroke-opacity="0.09" stroke-width="1.2"/>
  <circle cx="108.0" cy="403.7" r="69" fill="none" stroke="#ffffff" stroke-opacity="0.09" stroke-width="1.2"/>
  <circle cx="0.1" cy="132.2" r="2.9" fill="#0a0a0f" opacity="0.13"/>
  <circle cx="25.6" cy="404.5" r="2.8" fill="#ffffff" opacity="0.10"/>
  <circle cx="245.5" cy="498.3" r="2.1" fill="#ffffff" opacity="0.13"/>
  <circle cx="56.6" cy="329.1" r="3.0" fill="#0a0a0f" opacity="0.05"/>
  <circle cx="183.5" cy="73.3" r="2.1" fill="#ffffff" opacity="0.06"/>
  <circle cx="43.6" cy="378.1" r="1.0" fill="#ffffff" opacity="0.13"/>
  <circle cx="172.4" cy="536.4" r="2.2" fill="#0a0a0f" opacity="0.06"/>
  <circle cx="32.3" cy="515.3" r="2.0" fill="#ffffff" opacity="0.15"/>
  <circle cx="206.8" cy="451.9" r="2.1" fill="#ffffff" opacity="0.11"/>
  <circle cx="338.2" cy="481.0" r="2.9" fill="#0a0a0f" opacity="0.07"/>
  <circle cx="89.4" cy="393.9" r="1.6" fill="#ffffff" opacity="0.13"/>
  <circle cx="34.0" cy="132.0" r="2.6" fill="#ffffff" opacity="0.05"/>
  <circle cx="285.0" cy="234.6" r="1.1" fill="#0a0a0f" opacity="0.06"/>
  <circle cx="18.9" cy="377.1" r="1.2" fill="#ffffff" opacity="0.13"/>
  <circle cx="121.3" cy="145.7" r="2.0" fill="#ffffff" opacity="0.05"/>
  <circle cx="169.8" cy="323.1" r="2.7" fill="#0a0a0f" opacity="0.09"/>
  <circle cx="346.3" cy="222.7" r="2.2" fill="#ffffff" opacity="0.10"/>
  <circle cx="50.2" cy="142.1" r="2.1" fill="#ffffff" opacity="0.10"/>
  <circle cx="318.3" cy="299.5" r="1.0" fill="#0a0a0f" opacity="0.14"/>
  <circle cx="446.5" cy="476.8" r="3.1" fill="#ffffff" opacity="0.06"/>
  <circle cx="32.7" cy="73.5" r="1.6" fill="#ffffff" opacity="0.12"/>
  <circle cx="340.6" cy="393.3" r="2.1" fill="#0a0a0f" opacity="0.08"/>
  <circle cx="443.9" cy="59.2" r="3.1" fill="#ffffff" opacity="0.07"/>
  <circle cx="433.3" cy="406.4" r="1.1" fill="#ffffff" opacity="0.09"/>
  <circle cx="2.4" cy="171.2" r="2.3" fill="#0a0a0f" opacity="0.06"/>
  <circle cx="60.1" cy="534.6" r="2.9" fill="#ffffff" opacity="0.05"/>
  <g opacity="0.92">
    <rect x="14" y="522" width="302" height="26" rx="13" fill="#0a0a0f" fill-opacity="0.55"/>
    <text x="23" y="539" font-family="ui-monospace, SFMono-Regular, Menlo, monospace" font-size="11" letter-spacing="1.5" fill="#f3efe8" fill-opacity="0.85">PLACEHOLDER · Hack&amp;Roll 2025 photo · 4:5</text>
  </g>
</svg>
